


<svg viewBox="0 0 200 187" xmlns="http://www.w3.org/2000/svg" xmlns:xlink="http://www.w3.org/1999/xlink">
    <mask id="mask0" mask-type="alpha">
        <path d="M190.312 36.4879C206.582 62.1187 201.309 102.826 182.328 134.186C163.346 165.547 
        130.807 187.559 100.226 186.353C69.6454 185.297 41.0228 161.023 21.7403 129.362C2.45775 
        97.8511 -7.48481 59.1033 6.67581 34.5279C20.9871 10.1032 59.7028 -0.149132 97.9666 
        0.00163737C136.23 0.303176 174.193 10.857 190.312 36.4879Z"/>
    </mask>
    <g mask="url(#mask0)">
        <path d="M190.312 36.4879C206.582 62.1187 201.309 102.826 182.328 134.186C163.346 
        165.547 130.807 187.559 100.226 186.353C69.6454 185.297 41.0228 161.023 21.7403 
        129.362C2.45775 97.8511 -7.48481 59.1033 6.67581 34.5279C20.9871 10.1032 59.7028 
        -0.149132 97.9666 0.00163737C136.23 0.303176 174.193 10.857 190.312 36.4879Z"/>
        <image href=""/>
    </g>
</svg>

<?xml version="1.0" standalone="no"?>
<svg viewBox="0 0 200 200" xmlns="http://www.w3.org/2000/svg">
  <path fill="#24A148" d="M51,-41C62.9,-25.7,67.2,-4.7,61.4,11.3C55.6,27.3,39.6,38.3,20.9,49.7C2.2,61.1,-19.3,72.9,-34,67.2C-48.8,61.4,-56.7,38.1,-62.6,13.8C-68.5,-10.4,-72.3,-35.6,-61.6,-50.6C-50.8,-65.7,-25.4,-70.6,-2.9,-68.3C19.5,-65.9,39,-56.3,51,-41Z" transform="translate(100 100)" />
</svg>
